Coordinates
nRows=4
nColumns=38

# SIMM Motion File Header:
name Coordinates
datacolumns 38
datarows 4
otherdata 1
range 2.49880000000000010000 2.50179999999999980000

Units are S.I. units (second, meters, Newtons, ...)
Angles are in degrees.

endheader
time	pelvis_tilt	pelvis_list	pelvis_rotation	pelvis_tx	pelvis_ty	pelvis_tz	hip_flexion_r	hip_adduction_r	hip_rotation_r	knee_angle_r	ankle_angle_r	subtalar_angle_r	mtp_angle_r	hip_flexion_l	hip_adduction_l	hip_rotation_l	knee_angle_l	ankle_angle_l	subtalar_angle_l	mtp_angle_l	lumbar_extension	lumbar_bending	lumbar_rotation	arm_flex_r	arm_add_r	arm_rot_r	elbow_flex_r	pro_sup_r	wrist_flex_r	wrist_dev_r	arm_flex_l	arm_add_l	arm_rot_l	elbow_flex_l	pro_sup_l	wrist_flex_l	wrist_dev_l
      2.49880000000000010000	     -5.74510100474706050000	      2.68760597370892460000	      2.09941632960628020000	      1.09656270120028390000	      0.96879650813688456000	     -0.34041501416076958000	     51.09574973039838100000	      0.50843712661041285000	     -0.03716132648054809600	   -106.65551065347923000000	     -1.01154922595713730000	     -0.00000000000014666258	     -0.00000000000015992226	      3.19599960810336810000	      7.47243527182273760000	      6.04696517529975970000	    -32.31449131725528900000	     13.40907354785555400000	      0.00000000000007384533	      0.00000000000000973330	     -7.97256525048810440000	     -5.50833104378532030000	    -10.87939702635199000000	    -36.18182776843013900000	    -10.39010351092285400000	    -13.46936241143810700000	     61.10619236155547900000	     68.37860571300129200000	      0.00000000000001491921	     -0.00000000000002871930	    -18.93263051442958700000	    -21.05710791844591500000	     -5.04740688845009090000	    126.81887338484034000000	     95.26779340829163800000	      0.00000000000002925107	     -0.00000000000000015683
      2.49980000000000000000	     -5.78242815529888170000	      2.54958530609835820000	      2.05850485283926870000	      1.09678974422261550000	      0.96947719205774774000	     -0.34039531400229167000	     51.24890078354359700000	      0.62687276681350568000	     -0.09898047724918868100	   -106.13544857183128000000	     -0.98255145715016046000	     -0.00000000000014705219	     -0.00000000000016027508	      2.82123860749470890000	      7.31306939615655780000	      6.11574123725678120000	    -31.97185196860724000000	     12.99306282304477400000	      0.00000000000007434988	      0.00000000000000978078	     -7.89007375607279650000	     -5.33089278676879810000	    -10.97758857909997400000	    -36.30287384646386800000	    -10.40176040173093100000	    -13.63010685253507100000	     61.21572035199321200000	     68.38017576138011600000	      0.00000000000001498167	     -0.00000000000002879661	    -18.86480492006107900000	    -21.04407269576104200000	     -5.01480429378016180000	    127.12182123541301000000	     95.23124470346289200000	      0.00000000000002936052	      0.00000000000000000088
      2.50079999999999990000	     -5.81952688630364000000	      2.41006570748787800000	      2.01544383230708140000	      1.09702355211331290000	      0.97016682207498950000	     -0.34037270490225924000	     51.39619525957729000000	      0.74755265234788126000	     -0.16164627610121365000	   -105.60849243127709000000	     -0.95458377603663314000	     -0.00000000000014743957	     -0.00000000000016062815	      2.44720677424778850000	      7.15159002639915450000	      6.17955912016566080000	    -31.62766213335432800000	     12.56328276364589600000	      0.00000000000007480688	      0.00000000000000998731	     -7.80725230029335200000	     -5.15165501863555080000	    -11.07269562059049200000	    -36.42442301398623500000	    -10.41494415106053500000	    -13.78793175824999700000	     61.32712607857682500000	     68.38126924339623300000	      0.00000000000001504468	     -0.00000000000002887444	    -18.80000979010939600000	    -21.03026736827811000000	     -4.97969888602940980000	    127.42544069528208000000	     95.18925928892394900000	      0.00000000000002947067	      0.00000000000000016103
      2.50179999999999980000	     -5.85644159401029900000	      2.26902615670651380000	      1.97019087824841630000	      1.09726391363754730000	      0.97086502044175049000	     -0.34034710491990083000	     51.53770196803090900000	      0.87056849337894049000	     -0.22507681515270206000	   -105.07467865495795000000	     -0.92770464326418134000	     -0.00000000000014782357	     -0.00000000000016097984	      2.07408433434405030000	      6.98800456693653070000	      6.23815177881258800000	    -31.28215433787140800000	     12.11984343543461400000	      0.00000000000007526950	      0.00000000000001017987	     -7.72410508649801920000	     -4.97059269949818550000	    -11.16465698301371700000	    -36.54648129197698100000	    -10.42965259487953000000	    -13.94281667336777100000	     61.44035207754646400000	     68.38179274138813900000	      0.00000000000001510768	     -0.00000000000002895138	    -18.73817505208264600000	    -21.01569324992526000000	     -4.94199412397280110000	    127.72963331609934000000	     95.14193308015106300000	      0.00000000000002958149	      0.00000000000000032559
